<svg preserveAspectRatio="xMidYMid meet" focusable="false" width="0" height="0" visibility="hidden"
     style="pointer-events: none;position: absolute;" xmlns="http://www.w3.org/2000/svg">
    <symbol id="flag-pt" viewBox="0 0 16 12" fill="none">
        <g clip-path="url(#clip0_2_303)">
            <rect width="7" height="12" fill="#2B9F5A"/>
            <rect x="7" width="9" height="12" fill="#DC251C"/>
            <circle cx="7" cy="6" r="2.75" stroke="#FFD018" stroke-width="0.5"/>
            <path d="M5 5C5 4.44772 5.44772 4 6 4H8C8.55228 4 9 4.44772 9 5V6C9 7.10457 8.10457 8 7 8C5.89543 8 5 7.10457 5 6V5Z"
                  fill="#DC251C"/>
            <path d="M6 5H8V6C8 6.55228 7.55228 7 7 7C6.44772 7 6 6.55228 6 6V5Z" fill="#F5F8FB"/>
        </g>
        <defs>
            <clipPath id="clip0_2_303">
                <rect width="16" height="12" fill="white"/>
            </clipPath>
        </defs>
    </symbol>
    <symbol id="flag-en" viewBox="0 0 16 12" fill="none">
        <rect width="16" height="11" fill="#EEF3F8"/>
        <rect width="9" height="7" fill="#41479B"/>
        <rect x="9" width="7" height="1" fill="#DC251C"/>
        <rect x="9" y="2" width="7" height="1" fill="#DC251C"/>
        <rect x="9" y="4" width="7" height="1" fill="#DC251C"/>
        <rect x="9" y="6" width="7" height="1" fill="#DC251C"/>
        <rect y="8" width="16" height="1" fill="#DC251C"/>
        <rect y="10" width="16" height="1" fill="#DC251C"/>
        <rect x="1" y="1" width="1" height="1" fill="#C5D0EC"/>
        <rect x="3" y="1" width="1" height="1" fill="#C5D0EC"/>
        <rect x="5" y="1" width="1" height="1" fill="#C5D0EC"/>
        <rect x="7" y="1" width="1" height="1" fill="#C5D0EC"/>
        <rect x="1" y="3" width="1" height="1" fill="#C5D0EC"/>
        <rect x="3" y="3" width="1" height="1" fill="#C5D0EC"/>
        <rect x="5" y="3" width="1" height="1" fill="#C5D0EC"/>
        <rect x="2" y="4" width="1" height="1" fill="#C5D0EC"/>
        <rect x="4" y="4" width="1" height="1" fill="#C5D0EC"/>
        <rect x="6" y="4" width="1" height="1" fill="#C5D0EC"/>
        <rect x="2" y="2" width="1" height="1" fill="#C5D0EC"/>
        <rect x="4" y="2" width="1" height="1" fill="#C5D0EC"/>
        <rect x="6" y="2" width="1" height="1" fill="#C5D0EC"/>
        <rect x="7" y="3" width="1" height="1" fill="#C5D0EC"/>
        <rect x="1" y="5" width="1" height="1" fill="#C5D0EC"/>
        <rect x="3" y="5" width="1" height="1" fill="#C5D0EC"/>
        <rect x="5" y="5" width="1" height="1" fill="#C5D0EC"/>
        <rect x="7" y="5" width="1" height="1" fill="#C5D0EC"/>
    </symbol>
    <symbol id="check" viewBox="0 0 32 32" fill="currentColor">
        <path d="M25.961 8.625l-12.629 12.629-5.957-5.961c-0.181-0.181-0.431-0.293-0.707-0.293s-0.526 0.112-0.707 0.293v0c-0.181 0.181-0.293 0.431-0.293 0.707s0.112 0.526 0.293 0.707l6.664 6.668c0.181 0.181 0.431 0.293 0.707 0.293s0.526-0.112 0.707-0.293l13.336-13.336c0.181-0.181 0.293-0.431 0.293-0.707s-0.112-0.526-0.293-0.707v0c-0.181-0.181-0.431-0.293-0.707-0.293s-0.526 0.112-0.707 0.293v0z"/>
    </symbol>

    <!-- Actions -->
    <symbol id="copy" viewBox="0 0 32 32" fill="currentColor">
        <path d="M13.332 9.668c-2.013 0-3.664 1.651-3.664 3.664v10.668c0 2.013 1.651 3.668 3.664 3.668h10.668c2.013 0 3.668-1.655 3.668-3.668v-10.668c0-2.013-1.655-3.664-3.668-3.664zM13.332 11.668h10.668c0.932 0 1.668 0.732 1.668 1.664v10.668c0 0.932-0.736 1.668-1.668 1.668h-10.668c-0.932 0-1.664-0.736-1.664-1.668v-10.668c0-0.932 0.732-1.664 1.664-1.664z"/>
        <path d="M8 4.332c-0.972 0-1.906 0.387-2.594 1.074s-1.074 1.622-1.074 2.594v10.668c0 0.972 0.387 1.902 1.074 2.59s1.622 1.074 2.594 1.074h2.668c0.552 0 1-0.448 1-1v0c0-0.552-0.448-1-1-1v0h-2.668c-0.443 0-0.867-0.175-1.18-0.488s-0.488-0.733-0.488-1.176v-10.668c0-0.442 0.175-0.867 0.488-1.18s0.737-0.488 1.18-0.488h10.668c0.442 0 0.863 0.176 1.176 0.488s0.488 0.737 0.488 1.18v2.668c0 0.552 0.448 1 1 1v0c0.552 0 1-0.448 1-1v0-2.668c0-0.972-0.387-1.906-1.074-2.594s-1.618-1.074-2.59-1.074z"/>
    </symbol>

    <!-- Code -->
    <symbol id="code-block" viewBox="0 0 32 32" fill="currentColor">
        <path d="M7.29249 12.7076L3.29249 8.70757C3.19952 8.6147 3.12576 8.50441 3.07543 8.38301C3.02511 8.26161 2.99921 8.13148 2.99921 8.00007C2.99921 7.86865 3.02511 7.73853 3.07543 7.61713C3.12576 7.49573 3.19952 7.38544 3.29249 7.29257L7.29249 3.29257C7.48013 3.10493 7.73463 2.99951 7.99999 2.99951C8.26536 2.99951 8.51985 3.10493 8.70749 3.29257C8.89513 3.48021 9.00055 3.7347 9.00055 4.00007C9.00055 4.26543 8.89513 4.51993 8.70749 4.70757L5.41374 8.00007L8.70749 11.2926C8.89513 11.4802 9.00055 11.7347 9.00055 12.0001C9.00055 12.2654 8.89513 12.5199 8.70749 12.7076C8.51985 12.8952 8.26536 13.0006 7.99999 13.0006C7.73463 13.0006 7.48013 12.8952 7.29249 12.7076ZM12.2925 12.7076C12.3854 12.8005 12.4957 12.8743 12.6171 12.9246C12.7385 12.975 12.8686 13.0009 13 13.0009C13.1314 13.0009 13.2615 12.975 13.3829 12.9246C13.5043 12.8743 13.6146 12.8005 13.7075 12.7076L17.7075 8.70757C17.8005 8.6147 17.8742 8.50441 17.9246 8.38301C17.9749 8.26161 18.0008 8.13148 18.0008 8.00007C18.0008 7.86865 17.9749 7.73853 17.9246 7.61713C17.8742 7.49573 17.8005 7.38544 17.7075 7.29257L13.7075 3.29257C13.5199 3.10493 13.2654 2.99951 13 2.99951C12.7346 2.99951 12.4801 3.10493 12.2925 3.29257C12.1049 3.48021 11.9994 3.7347 11.9994 4.00007C11.9994 4.26543 12.1049 4.51993 12.2925 4.70757L15.5862 8.00007L12.2925 11.2926C12.1995 11.3854 12.1258 11.4957 12.0754 11.6171C12.0251 11.7385 11.9992 11.8687 11.9992 12.0001C11.9992 12.1315 12.0251 12.2616 12.0754 12.383C12.1258 12.5044 12.1995 12.6147 12.2925 12.7076ZM25 5.00007H22C21.7348 5.00007 21.4804 5.10542 21.2929 5.29296C21.1053 5.4805 21 5.73485 21 6.00007C21 6.26528 21.1053 6.51964 21.2929 6.70717C21.4804 6.89471 21.7348 7.00007 22 7.00007H25V25.0001H6.99999V17.0001C6.99999 16.7349 6.89464 16.4805 6.7071 16.293C6.51956 16.1054 6.26521 16.0001 5.99999 16.0001C5.73478 16.0001 5.48042 16.1054 5.29289 16.293C5.10535 16.4805 4.99999 16.7349 4.99999 17.0001V25.0001C4.99999 25.5305 5.21071 26.0392 5.58578 26.4143C5.96085 26.7894 6.46956 27.0001 6.99999 27.0001H25C25.5304 27.0001 26.0391 26.7894 26.4142 26.4143C26.7893 26.0392 27 25.5305 27 25.0001V7.00007C27 6.46963 26.7893 5.96093 26.4142 5.58585C26.0391 5.21078 25.5304 5.00007 25 5.00007Z"/>
    </symbol>
    <symbol id="code" viewBox="0 0 32 32" fill="currentColor">
        <path d="M11.6637 8.75002L3.49999 16L11.6587 23.25C11.7572 23.3372 11.8376 23.4429 11.8952 23.5611C11.9529 23.6793 11.9867 23.8077 11.9947 23.939C12.0027 24.0703 11.9847 24.2019 11.9419 24.3262C11.8991 24.4506 11.8322 24.5653 11.745 24.6638C11.6578 24.7623 11.5521 24.8426 11.4339 24.9003C11.3157 24.9579 11.1873 24.9917 11.056 24.9997C10.9247 25.0077 10.7931 24.9898 10.6688 24.9469C10.5444 24.9041 10.4297 24.8372 10.3312 24.75L1.33124 16.75C1.22483 16.6562 1.13961 16.5408 1.08124 16.4115C1.02286 16.2821 0.992676 16.1419 0.992676 16C0.992676 15.8581 1.02286 15.7179 1.08124 15.5886C1.13961 15.4593 1.22483 15.3439 1.33124 15.25L10.3312 7.25002C10.4297 7.16252 10.5445 7.09529 10.669 7.05214C10.7934 7.009 10.9252 6.9908 11.0567 6.99858C11.1882 7.00635 11.3169 7.03996 11.4354 7.09747C11.554 7.15498 11.66 7.23527 11.7475 7.33377C11.835 7.43226 11.9022 7.54702 11.9454 7.67149C11.9885 7.79597 12.0067 7.92773 11.9989 8.05924C11.9911 8.19075 11.9575 8.31944 11.9 8.43796C11.8425 8.55649 11.7622 8.66252 11.6637 8.75002ZM30.6637 15.25L21.6637 7.25002C21.4648 7.07398 21.2041 6.98417 20.939 7.00034C20.6739 7.01652 20.426 7.13735 20.25 7.33627C20.074 7.53518 19.9841 7.79587 20.0003 8.061C20.0165 8.32613 20.1373 8.57398 20.3362 8.75002L28.5 16L20.3412 23.25C20.2427 23.3372 20.1624 23.4429 20.1048 23.5611C20.0471 23.6793 20.0133 23.8077 20.0053 23.939C19.9973 24.0703 20.0152 24.2019 20.0581 24.3262C20.1009 24.4506 20.1678 24.5653 20.255 24.6638C20.3422 24.7623 20.4479 24.8426 20.5661 24.9003C20.6843 24.9579 20.8127 24.9917 20.944 24.9997C21.0753 25.0077 21.2069 24.9898 21.3312 24.9469C21.4556 24.9041 21.5702 24.8372 21.6687 24.75L30.6687 16.75C30.7751 16.6562 30.8604 16.5408 30.9187 16.4115C30.9771 16.2821 31.0073 16.1419 31.0073 16C31.0073 15.8581 30.9771 15.7179 30.9187 15.5886C30.8604 15.4593 30.7751 15.3439 30.6687 15.25H30.6637Z"/>
    </symbol>

    <!-- Social -->
    <symbol id="github" viewBox="0 0 32 32" fill="currentColor">
        <path d="M26.0387 9.46002C26.3444 8.47401 26.4425 7.43537 26.3267 6.40958C26.211 5.3838 25.8839 4.39312 25.3662 3.50002C25.2785 3.34796 25.1522 3.22171 25.0001 3.13393C24.8481 3.04616 24.6756 2.99998 24.5 3.00002C23.3352 2.99758 22.186 3.2676 21.1442 3.7885C20.1024 4.3094 19.1969 5.06674 18.5 6.00002H15.5C14.8031 5.06674 13.8976 4.3094 12.8558 3.7885C11.814 3.2676 10.6648 2.99758 9.5 3.00002C9.32443 2.99998 9.15193 3.04616 8.99987 3.13393C8.84781 3.22171 8.72154 3.34796 8.63375 3.50002C8.11606 4.39312 7.78903 5.3838 7.67329 6.40958C7.55754 7.43537 7.65559 8.47401 7.96125 9.46002C7.34341 10.5384 7.01245 11.7572 7 13V14C7.0021 15.692 7.61634 17.3261 8.72928 18.6006C9.84222 19.875 11.3787 20.7038 13.055 20.9338C12.3708 21.8093 11.9994 22.8888 12 24V25H9C8.20435 25 7.44129 24.6839 6.87868 24.1213C6.31607 23.5587 6 22.7957 6 22C6 21.3434 5.87067 20.6932 5.6194 20.0866C5.36812 19.48 4.99983 18.9288 4.53553 18.4645C4.07124 18.0002 3.52005 17.6319 2.91342 17.3806C2.30679 17.1293 1.65661 17 1 17C0.734784 17 0.48043 17.1054 0.292893 17.2929C0.105357 17.4804 0 17.7348 0 18C0 18.2652 0.105357 18.5196 0.292893 18.7071C0.48043 18.8947 0.734784 19 1 19C1.79565 19 2.55871 19.3161 3.12132 19.8787C3.68393 20.4413 4 21.2044 4 22C4 23.3261 4.52678 24.5979 5.46447 25.5356C6.40215 26.4732 7.67392 27 9 27H12V29C12 29.2652 12.1054 29.5196 12.2929 29.7071C12.4804 29.8947 12.7348 30 13 30C13.2652 30 13.5196 29.8947 13.7071 29.7071C13.8946 29.5196 14 29.2652 14 29V24C14 23.2044 14.3161 22.4413 14.8787 21.8787C15.4413 21.3161 16.2044 21 17 21C17.7956 21 18.5587 21.3161 19.1213 21.8787C19.6839 22.4413 20 23.2044 20 24V29C20 29.2652 20.1054 29.5196 20.2929 29.7071C20.4804 29.8947 20.7348 30 21 30C21.2652 30 21.5196 29.8947 21.7071 29.7071C21.8946 29.5196 22 29.2652 22 29V24C22.0006 22.8888 21.6292 21.8093 20.945 20.9338C22.6213 20.7038 24.1578 19.875 25.2707 18.6006C26.3837 17.3261 26.9979 15.692 27 14V13C26.9875 11.7572 26.6566 10.5384 26.0387 9.46002ZM25 14C25 15.3261 24.4732 16.5979 23.5355 17.5356C22.5979 18.4732 21.3261 19 20 19H14C12.6739 19 11.4021 18.4732 10.4645 17.5356C9.52678 16.5979 9 15.3261 9 14V13C9.01226 12 9.31164 11.0247 9.8625 10.19C9.96519 10.0547 10.0317 9.89538 10.0558 9.7272C10.0798 9.55902 10.0606 9.38748 10 9.22877C9.73953 8.55701 9.61417 7.84046 9.63112 7.12018C9.64806 6.39989 9.80698 5.69003 10.0988 5.03127C10.9171 5.11931 11.7052 5.39041 12.4046 5.82448C13.104 6.25855 13.6966 6.84446 14.1388 7.53877C14.2288 7.67965 14.3528 7.79569 14.4994 7.87627C14.6459 7.95685 14.8103 7.99939 14.9775 8.00002H19.0212C19.1891 8.00002 19.3543 7.95777 19.5015 7.87716C19.6487 7.79656 19.7733 7.68018 19.8638 7.53877C20.3058 6.84439 20.8985 6.25844 21.5978 5.82436C22.2972 5.39029 23.0853 5.11922 23.9037 5.03127C24.1951 5.69019 24.3536 6.40014 24.3701 7.12043C24.3866 7.84071 24.2609 8.55718 24 9.22877C23.9396 9.38596 23.9193 9.55576 23.9412 9.72275C23.963 9.88974 24.0262 10.0486 24.125 10.185C24.6813 11.0197 24.9851 11.9971 25 13V14Z"/>
    </symbol>
    <symbol id="linkedin" viewBox="0 0 32 32" fill="currentColor">
        <path d="M27 3H5C4.46957 3 3.96086 3.21071 3.58579 3.58579C3.21071 3.96086 3 4.46957 3 5V27C3 27.5304 3.21071 28.0391 3.58579 28.4142C3.96086 28.7893 4.46957 29 5 29H27C27.5304 29 28.0391 28.7893 28.4142 28.4142C28.7893 28.0391 29 27.5304 29 27V5C29 4.46957 28.7893 3.96086 28.4142 3.58579C28.0391 3.21071 27.5304 3 27 3ZM27 27H5V5H27V27ZM12 14V22C12 22.2652 11.8946 22.5196 11.7071 22.7071C11.5196 22.8946 11.2652 23 11 23C10.7348 23 10.4804 22.8946 10.2929 22.7071C10.1054 22.5196 10 22.2652 10 22V14C10 13.7348 10.1054 13.4804 10.2929 13.2929C10.4804 13.1054 10.7348 13 11 13C11.2652 13 11.5196 13.1054 11.7071 13.2929C11.8946 13.4804 12 13.7348 12 14ZM23 17.5V22C23 22.2652 22.8946 22.5196 22.7071 22.7071C22.5196 22.8946 22.2652 23 22 23C21.7348 23 21.4804 22.8946 21.2929 22.7071C21.1054 22.5196 21 22.2652 21 22V17.5C21 16.837 20.7366 16.2011 20.2678 15.7322C19.7989 15.2634 19.163 15 18.5 15C17.837 15 17.2011 15.2634 16.7322 15.7322C16.2634 16.2011 16 16.837 16 17.5V22C16 22.2652 15.8946 22.5196 15.7071 22.7071C15.5196 22.8946 15.2652 23 15 23C14.7348 23 14.4804 22.8946 14.2929 22.7071C14.1054 22.5196 14 22.2652 14 22V14C14.0012 13.7551 14.0923 13.5191 14.256 13.3369C14.4197 13.1546 14.6446 13.0388 14.888 13.0114C15.1314 12.9839 15.3764 13.0468 15.5765 13.188C15.7767 13.3292 15.918 13.539 15.9738 13.7775C16.6502 13.3186 17.4389 13.0526 18.2552 13.0081C19.0714 12.9637 19.8844 13.1424 20.6067 13.5251C21.329 13.9078 21.9335 14.48 22.3551 15.1803C22.7768 15.8806 22.9997 16.6825 23 17.5ZM12.5 10.5C12.5 10.7967 12.412 11.0867 12.2472 11.3334C12.0824 11.58 11.8481 11.7723 11.574 11.8858C11.2999 11.9994 10.9983 12.0291 10.7074 11.9712C10.4164 11.9133 10.1491 11.7704 9.93934 11.5607C9.72956 11.3509 9.5867 11.0836 9.52882 10.7926C9.47094 10.5017 9.50065 10.2001 9.61418 9.92597C9.72771 9.65189 9.91997 9.41762 10.1666 9.2528C10.4133 9.08797 10.7033 9 11 9C11.3978 9 11.7794 9.15804 12.0607 9.43934C12.342 9.72064 12.5 10.1022 12.5 10.5Z"/>
    </symbol>
    <symbol id="instagram" viewBox="0 0 32 32" fill="currentColor">
        <path d="M16 10C14.8133 10 13.6533 10.3519 12.6666 11.0112C11.6799 11.6705 10.9108 12.6075 10.4567 13.7039C10.0026 14.8003 9.88378 16.0067 10.1153 17.1705C10.3468 18.3344 10.9182 19.4035 11.7574 20.2426C12.5965 21.0818 13.6656 21.6532 14.8295 21.8847C15.9933 22.1162 17.1997 21.9974 18.2961 21.5433C19.3925 21.0892 20.3295 20.3201 20.9888 19.3334C21.6481 18.3467 22 17.1867 22 16C21.9983 14.4092 21.3657 12.884 20.2408 11.7592C19.116 10.6343 17.5908 10.0017 16 10ZM16 20C15.2089 20 14.4355 19.7654 13.7777 19.3259C13.1199 18.8864 12.6072 18.2616 12.3045 17.5307C12.0017 16.7998 11.9225 15.9956 12.0769 15.2196C12.2312 14.4437 12.6122 13.731 13.1716 13.1716C13.731 12.6122 14.4437 12.2312 15.2196 12.0769C15.9956 11.9225 16.7998 12.0017 17.5307 12.3045C18.2616 12.6072 18.8864 13.1199 19.3259 13.7777C19.7654 14.4355 20 15.2089 20 16C20 17.0609 19.5786 18.0783 18.8284 18.8284C18.0783 19.5786 17.0609 20 16 20ZM22 3H10C8.14409 3.00199 6.36477 3.74012 5.05245 5.05245C3.74012 6.36477 3.00199 8.14409 3 10V22C3.00199 23.8559 3.74012 25.6352 5.05245 26.9476C6.36477 28.2599 8.14409 28.998 10 29H22C23.8559 28.998 25.6352 28.2599 26.9476 26.9476C28.2599 25.6352 28.998 23.8559 29 22V10C28.998 8.14409 28.2599 6.36477 26.9476 5.05245C25.6352 3.74012 23.8559 3.00199 22 3ZM27 22C27 23.3261 26.4732 24.5979 25.5355 25.5355C24.5979 26.4732 23.3261 27 22 27H10C8.67392 27 7.40215 26.4732 6.46447 25.5355C5.52678 24.5979 5 23.3261 5 22V10C5 8.67392 5.52678 7.40215 6.46447 6.46447C7.40215 5.52678 8.67392 5 10 5H22C23.3261 5 24.5979 5.52678 25.5355 6.46447C26.4732 7.40215 27 8.67392 27 10V22ZM24 9.5C24 9.79667 23.912 10.0867 23.7472 10.3334C23.5824 10.58 23.3481 10.7723 23.074 10.8858C22.7999 10.9994 22.4983 11.0291 22.2074 10.9712C21.9164 10.9133 21.6491 10.7704 21.4393 10.5607C21.2296 10.3509 21.0867 10.0836 21.0288 9.79264C20.9709 9.50166 21.0007 9.20006 21.1142 8.92597C21.2277 8.65189 21.42 8.41762 21.6666 8.2528C21.9133 8.08797 22.2033 8 22.5 8C22.8978 8 23.2794 8.15804 23.5607 8.43934C23.842 8.72064 24 9.10218 24 9.5Z"/>
    </symbol>
    <symbol id="facebook" viewBox="0 0 32 32" fill="currentColor">
        <path d="M16 3C13.4288 3 10.9154 3.76244 8.77759 5.1909C6.63975 6.61935 4.97351 8.64968 3.98957 11.0251C3.00563 13.4006 2.74819 16.0144 3.2498 18.5362C3.75141 21.0579 4.98953 23.3743 6.80762 25.1924C8.6257 27.0105 10.9421 28.2486 13.4638 28.7502C15.9856 29.2518 18.5995 28.9944 20.9749 28.0104C23.3503 27.0265 25.3807 25.3603 26.8091 23.2224C28.2376 21.0846 29 18.5712 29 16C28.9964 12.5533 27.6256 9.24882 25.1884 6.81163C22.7512 4.37445 19.4467 3.00364 16 3ZM17 26.9538V19H20C20.2652 19 20.5196 18.8946 20.7071 18.7071C20.8946 18.5196 21 18.2652 21 18C21 17.7348 20.8946 17.4804 20.7071 17.2929C20.5196 17.1054 20.2652 17 20 17H17V14C17 13.4696 17.2107 12.9609 17.5858 12.5858C17.9609 12.2107 18.4696 12 19 12H21C21.2652 12 21.5196 11.8946 21.7071 11.7071C21.8946 11.5196 22 11.2652 22 11C22 10.7348 21.8946 10.4804 21.7071 10.2929C21.5196 10.1054 21.2652 10 21 10H19C17.9391 10 16.9217 10.4214 16.1716 11.1716C15.4214 11.9217 15 12.9391 15 14V17H12C11.7348 17 11.4804 17.1054 11.2929 17.2929C11.1054 17.4804 11 17.7348 11 18C11 18.2652 11.1054 18.5196 11.2929 18.7071C11.4804 18.8946 11.7348 19 12 19H15V26.9538C12.181 26.6964 9.56971 25.3622 7.7093 23.2287C5.8489 21.0952 4.8826 18.3266 5.0114 15.4988C5.1402 12.671 6.35419 10.0017 8.40085 8.04613C10.4475 6.09057 13.1693 4.9993 16 4.9993C18.8307 4.9993 21.5525 6.09057 23.5992 8.04613C25.6458 10.0017 26.8598 12.671 26.9886 15.4988C27.1174 18.3266 26.1511 21.0952 24.2907 23.2287C22.4303 25.3622 19.819 26.6964 17 26.9538Z"/>
    </symbol>
    <symbol id="twitter" viewBox="0 0 32 32" fill="currentColor">
        <path d="M30.9237 8.61752C30.8481 8.43478 30.72 8.27857 30.5555 8.16866C30.3911 8.05875 30.1978 8.00006 30 8.00002H26.1963C25.6644 7.09524 24.9076 6.34346 23.9992 5.81777C23.0909 5.29208 22.0619 5.01037 21.0125 5.00002C20.2306 4.98976 19.4546 5.13598 18.7301 5.43008C18.0056 5.72418 17.3472 6.16021 16.7937 6.71252C16.2241 7.27154 15.7719 7.93883 15.4639 8.67512C15.1559 9.41142 14.9981 10.2019 15 11V11.7613C9.9675 10.4338 5.85125 6.34002 5.8075 6.29627C5.67334 6.16092 5.5033 6.06672 5.3174 6.02477C5.1315 5.98283 4.93748 5.99487 4.7582 6.05949C4.57891 6.12411 4.42183 6.23862 4.30544 6.38952C4.18905 6.54043 4.11821 6.72145 4.10125 6.91127C3.5625 12.885 5.2975 16.8825 6.85125 19.1838C7.60885 20.3214 8.53048 21.3407 9.58625 22.2088C7.6825 24.4 4.685 25.5513 4.6525 25.5638C4.51139 25.6166 4.38405 25.7007 4.27999 25.8097C4.17594 25.9186 4.09785 26.0497 4.05158 26.1931C4.0053 26.3365 3.99203 26.4885 4.01275 26.6378C4.03347 26.787 4.08765 26.9296 4.17125 27.055C4.265 27.195 4.64 27.6863 5.55625 28.145C6.68875 28.7125 8.185 29 10 29C18.8337 29 26.215 22.1975 26.9688 13.445L30.7075 9.70752C30.8473 9.56759 30.9425 9.38934 30.981 9.19532C31.0195 9.0013 30.9995 8.80022 30.9237 8.61752ZM25.2987 12.2938C25.1273 12.4656 25.0242 12.694 25.0088 12.9363C24.5 20.8225 17.91 27 10 27C8.68 27 7.75 26.825 7.0975 26.615C8.53625 25.8338 10.5425 24.49 11.8325 22.555C11.9082 22.4412 11.9598 22.3131 11.9841 22.1786C12.0083 22.0442 12.0048 21.9061 11.9736 21.773C11.9425 21.64 11.8844 21.5147 11.8029 21.405C11.7214 21.2952 11.6184 21.2034 11.5 21.135C11.4412 21.1013 6.01125 17.8425 6 9.13502C8 10.76 11.6562 13.2813 15.8337 13.9838C15.9769 14.0079 16.1236 14.0006 16.2637 13.9623C16.4037 13.924 16.5338 13.8557 16.6448 13.7621C16.7558 13.6684 16.845 13.5518 16.9064 13.4202C16.9677 13.2886 16.9997 13.1452 17 13V11C16.9989 10.4666 17.1045 9.9383 17.3105 9.44628C17.5166 8.95426 17.819 8.50842 18.2 8.13502C18.5652 7.76914 19 7.48018 19.4788 7.28524C19.9576 7.09029 20.4706 6.99331 20.9875 7.00002C22.57 7.02002 24.0487 7.98502 24.6675 9.40127C24.7455 9.57932 24.8737 9.73079 25.0364 9.83713C25.1992 9.94347 25.3894 10.0001 25.5837 10H27.5837L25.2987 12.2938Z"/>
    </symbol>
    <symbol id="youtube" viewBox="0 0 32 32" fill="currentColor">
        <path d="M20.555 15.1675L14.555 11.1675C14.4044 11.067 14.2293 11.0093 14.0484 11.0005C13.8675 10.9918 13.6877 11.0323 13.528 11.1177C13.3684 11.2032 13.2349 11.3304 13.1419 11.4858C13.0489 11.6412 12.9999 11.8189 13 12V20C12.9999 20.1811 13.0489 20.3588 13.1419 20.5142C13.2349 20.6696 13.3684 20.7968 13.528 20.8823C13.6877 20.9677 13.8675 21.0082 14.0484 20.9995C14.2293 20.9907 14.4044 20.933 14.555 20.8325L20.555 16.8325C20.6922 16.7412 20.8047 16.6175 20.8825 16.4722C20.9603 16.327 21.001 16.1648 21.001 16C21.001 15.8352 20.9603 15.673 20.8825 15.5278C20.8047 15.3826 20.6922 15.2588 20.555 15.1675ZM15 18.1313V13.875L18.1975 16L15 18.1313ZM29.2913 8.69C29.1735 8.22919 28.9478 7.80298 28.6329 7.44654C28.318 7.09011 27.9228 6.81366 27.48 6.64C23.195 4.985 16.375 5 16 5C15.625 5 8.805 4.985 4.52 6.64C4.0772 6.81366 3.68204 7.09011 3.36712 7.44654C3.05219 7.80298 2.82653 8.22919 2.70875 8.69C2.385 9.9375 2 12.2175 2 16C2 19.7825 2.385 22.0625 2.70875 23.31C2.82636 23.771 3.05194 24.1975 3.36687 24.5542C3.68181 24.9108 4.07706 25.1875 4.52 25.3613C8.625 26.945 15.05 27 15.9175 27H16.0825C16.95 27 23.3787 26.945 27.48 25.3613C27.9229 25.1875 28.3182 24.9108 28.6331 24.5542C28.9481 24.1975 29.1736 23.771 29.2913 23.31C29.615 22.06 30 19.7825 30 16C30 12.2175 29.615 9.9375 29.2913 8.69ZM27.355 22.815C27.3169 22.9684 27.243 23.1105 27.1394 23.2298C27.0357 23.3491 26.9053 23.4421 26.7588 23.5013C22.8025 25.0288 16.0738 25.0013 16.0088 25.0013H16C15.9325 25.0013 9.20875 25.0263 5.25 23.5013C5.10346 23.4421 4.97303 23.3491 4.86938 23.2298C4.76574 23.1105 4.69185 22.9684 4.65375 22.815C4.35 21.6738 4 19.5713 4 16C4 12.4288 4.35 10.3263 4.645 9.19125C4.68239 9.03698 4.75596 8.89382 4.85965 8.77362C4.96333 8.65342 5.09413 8.55963 5.24125 8.5C9.05625 7.02625 15.4487 7 15.9725 7H16.0063C16.0738 7 22.8038 6.9775 26.7563 8.5C26.9028 8.55915 27.0332 8.65217 27.1369 8.77146C27.2405 8.89074 27.3144 9.03289 27.3525 9.18625C27.65 10.3263 28 12.4288 28 16C28 19.5713 27.65 21.6738 27.355 22.8088V22.815Z"/>
    </symbol>

    <!-- Common -->
    <symbol id="link" viewBox="0 0 32 32" fill="currentColor">
        <path d="M17.1925 23.2951C17.3799 23.4826 17.4851 23.7368 17.4851 24.0019C17.4851 24.267 17.3799 24.5213 17.1925 24.7088L15.95 25.9588C14.636 27.272 12.8542 28.0093 10.9965 28.0088C9.13884 28.0082 7.3575 27.2697 6.04434 25.9557C4.73119 24.6417 3.9938 22.8599 3.99439 21.0022C3.99497 19.1446 4.73349 17.3632 6.04747 16.0501L9.06247 13.0351C10.3246 11.7719 12.0217 11.0389 13.8065 10.9859C15.5913 10.9329 17.3289 11.564 18.6637 12.7501C18.7622 12.8374 18.8425 12.9433 18.9001 13.0616C18.9577 13.18 18.9914 13.3086 18.9993 13.44C19.0072 13.5713 18.9891 13.703 18.9461 13.8274C18.9031 13.9518 18.836 14.0666 18.7487 14.1651C18.6614 14.2635 18.5555 14.3439 18.4371 14.4014C18.3188 14.459 18.1902 14.4927 18.0588 14.5006C17.9274 14.5085 17.7958 14.4904 17.6714 14.4475C17.5469 14.4045 17.4322 14.3374 17.3337 14.2501C16.3804 13.4034 15.1396 12.953 13.8651 12.9909C12.5907 13.0288 11.3789 13.5521 10.4775 14.4538L7.46247 17.4651C6.5246 18.4029 5.99771 19.675 5.99771 21.0013C5.99771 22.3277 6.5246 23.5997 7.46247 24.5376C8.40034 25.4754 9.67237 26.0023 10.9987 26.0023C12.3251 26.0023 13.5971 25.4754 14.535 24.5376L15.7775 23.2951C15.8703 23.2021 15.9806 23.1283 16.102 23.078C16.2234 23.0277 16.3536 23.0018 16.485 23.0018C16.6164 23.0018 16.7465 23.0277 16.8679 23.078C16.9893 23.1283 17.0996 23.2021 17.1925 23.2951ZM25.9525 6.04506C24.6383 4.73383 22.8577 3.99744 21.0012 3.99744C19.1448 3.99744 17.3641 4.73383 16.05 6.04506L14.8075 7.28881C14.62 7.47645 14.5147 7.73088 14.5149 7.99612C14.515 8.26137 14.6205 8.51571 14.8081 8.70318C14.9957 8.89066 15.2502 8.99591 15.5154 8.99579C15.7807 8.99568 16.035 8.8902 16.2225 8.70256L17.465 7.46006C18.4028 6.52218 19.6749 5.99529 21.0012 5.99529C22.3276 5.99529 23.5996 6.52218 24.5375 7.46006C25.4753 8.39793 26.0022 9.66995 26.0022 10.9963C26.0022 12.3227 25.4753 13.5947 24.5375 14.5326L21.5225 17.5501C20.6206 18.4513 19.4085 18.9739 18.134 19.0111C16.8596 19.0483 15.6191 18.5972 14.6662 17.7501C14.5677 17.6627 14.453 17.5957 14.3286 17.5527C14.2042 17.5097 14.0725 17.4916 13.9411 17.4995C13.6758 17.5154 13.4276 17.6361 13.2512 17.8351C13.1639 17.9335 13.0968 18.0483 13.0538 18.1727C13.0108 18.2971 12.9928 18.4288 13.0007 18.5602C13.0166 18.8255 13.1373 19.0737 13.3362 19.2501C14.6707 20.4364 16.4081 21.0679 18.1929 21.0154C19.9778 20.9629 21.675 20.2303 22.9375 18.9676L25.9525 15.9526C27.2645 14.6383 28.0013 12.8571 28.0013 11.0001C28.0013 9.143 27.2645 7.36183 25.9525 6.04756V6.04506Z"/>
    </symbol>

</svg>