<svg preserveAspectRatio="xMidYMid meet" focusable="false" width="0" height="0" visibility="hidden"
     style="pointer-events: none;position: absolute;" xmlns="http://www.w3.org/2000/svg">
    <symbol id="flag-pt" viewBox="0 0 16 12" fill="none">
        <g clip-path="url(#clip0_2_303)">
            <rect width="7" height="12" fill="#2B9F5A"/>
            <rect x="7" width="9" height="12" fill="#DC251C"/>
            <circle cx="7" cy="6" r="2.75" stroke="#FFD018" stroke-width="0.5"/>
            <path d="M5 5C5 4.44772 5.44772 4 6 4H8C8.55228 4 9 4.44772 9 5V6C9 7.10457 8.10457 8 7 8C5.89543 8 5 7.10457 5 6V5Z"
                  fill="#DC251C"/>
            <path d="M6 5H8V6C8 6.55228 7.55228 7 7 7C6.44772 7 6 6.55228 6 6V5Z" fill="#F5F8FB"/>
        </g>
        <defs>
            <clipPath id="clip0_2_303">
                <rect width="16" height="12" fill="white"/>
            </clipPath>
        </defs>
    </symbol>
    <symbol id="flag-en" viewBox="0 0 16 12" fill="none">
        <rect width="16" height="11" fill="#EEF3F8"/>
        <rect width="9" height="7" fill="#41479B"/>
        <rect x="9" width="7" height="1" fill="#DC251C"/>
        <rect x="9" y="2" width="7" height="1" fill="#DC251C"/>
        <rect x="9" y="4" width="7" height="1" fill="#DC251C"/>
        <rect x="9" y="6" width="7" height="1" fill="#DC251C"/>
        <rect y="8" width="16" height="1" fill="#DC251C"/>
        <rect y="10" width="16" height="1" fill="#DC251C"/>
        <rect x="1" y="1" width="1" height="1" fill="#C5D0EC"/>
        <rect x="3" y="1" width="1" height="1" fill="#C5D0EC"/>
        <rect x="5" y="1" width="1" height="1" fill="#C5D0EC"/>
        <rect x="7" y="1" width="1" height="1" fill="#C5D0EC"/>
        <rect x="1" y="3" width="1" height="1" fill="#C5D0EC"/>
        <rect x="3" y="3" width="1" height="1" fill="#C5D0EC"/>
        <rect x="5" y="3" width="1" height="1" fill="#C5D0EC"/>
        <rect x="2" y="4" width="1" height="1" fill="#C5D0EC"/>
        <rect x="4" y="4" width="1" height="1" fill="#C5D0EC"/>
        <rect x="6" y="4" width="1" height="1" fill="#C5D0EC"/>
        <rect x="2" y="2" width="1" height="1" fill="#C5D0EC"/>
        <rect x="4" y="2" width="1" height="1" fill="#C5D0EC"/>
        <rect x="6" y="2" width="1" height="1" fill="#C5D0EC"/>
        <rect x="7" y="3" width="1" height="1" fill="#C5D0EC"/>
        <rect x="1" y="5" width="1" height="1" fill="#C5D0EC"/>
        <rect x="3" y="5" width="1" height="1" fill="#C5D0EC"/>
        <rect x="5" y="5" width="1" height="1" fill="#C5D0EC"/>
        <rect x="7" y="5" width="1" height="1" fill="#C5D0EC"/>
    </symbol>
    <symbol id="check" viewBox="0 0 32 32" fill="currentColor">
        <path d="M25.961 8.625l-12.629 12.629-5.957-5.961c-0.181-0.181-0.431-0.293-0.707-0.293s-0.526 0.112-0.707 0.293v0c-0.181 0.181-0.293 0.431-0.293 0.707s0.112 0.526 0.293 0.707l6.664 6.668c0.181 0.181 0.431 0.293 0.707 0.293s0.526-0.112 0.707-0.293l13.336-13.336c0.181-0.181 0.293-0.431 0.293-0.707s-0.112-0.526-0.293-0.707v0c-0.181-0.181-0.431-0.293-0.707-0.293s-0.526 0.112-0.707 0.293v0z"/>
    </symbol>
    <symbol id="copy" viewBox="0 0 32 32" fill="currentColor">
        <path d="M13.332 9.668c-2.013 0-3.664 1.651-3.664 3.664v10.668c0 2.013 1.651 3.668 3.664 3.668h10.668c2.013 0 3.668-1.655 3.668-3.668v-10.668c0-2.013-1.655-3.664-3.668-3.664zM13.332 11.668h10.668c0.932 0 1.668 0.732 1.668 1.664v10.668c0 0.932-0.736 1.668-1.668 1.668h-10.668c-0.932 0-1.664-0.736-1.664-1.668v-10.668c0-0.932 0.732-1.664 1.664-1.664z"/>
        <path d="M8 4.332c-0.972 0-1.906 0.387-2.594 1.074s-1.074 1.622-1.074 2.594v10.668c0 0.972 0.387 1.902 1.074 2.59s1.622 1.074 2.594 1.074h2.668c0.552 0 1-0.448 1-1v0c0-0.552-0.448-1-1-1v0h-2.668c-0.443 0-0.867-0.175-1.18-0.488s-0.488-0.733-0.488-1.176v-10.668c0-0.442 0.175-0.867 0.488-1.18s0.737-0.488 1.18-0.488h10.668c0.442 0 0.863 0.176 1.176 0.488s0.488 0.737 0.488 1.18v2.668c0 0.552 0.448 1 1 1v0c0.552 0 1-0.448 1-1v0-2.668c0-0.972-0.387-1.906-1.074-2.594s-1.618-1.074-2.59-1.074z"/>
    </symbol>
</svg>