<svg preserveAspectRatio="xMidYMid meet" focusable="false" width="0" height="0" visibility="hidden"
     style="pointer-events: none;position: absolute;" xmlns="http://www.w3.org/2000/svg">
    <symbol id="flag-pt" viewBox="0 0 16 12" fill="none">
        <g clip-path="url(#clip0_2_303)">
            <rect width="7" height="12" fill="#2B9F5A"/>
            <rect x="7" width="9" height="12" fill="#DC251C"/>
            <circle cx="7" cy="6" r="2.75" stroke="#FFD018" stroke-width="0.5"/>
            <path d="M5 5C5 4.44772 5.44772 4 6 4H8C8.55228 4 9 4.44772 9 5V6C9 7.10457 8.10457 8 7 8C5.89543 8 5 7.10457 5 6V5Z"
                  fill="#DC251C"/>
            <path d="M6 5H8V6C8 6.55228 7.55228 7 7 7C6.44772 7 6 6.55228 6 6V5Z" fill="#F5F8FB"/>
        </g>
        <defs>
            <clipPath id="clip0_2_303">
                <rect width="16" height="12" fill="white"/>
            </clipPath>
        </defs>
    </symbol>
    <symbol id="flag-en" viewBox="0 0 16 12" fill="none">
        <rect width="16" height="11" fill="#EEF3F8"/>
        <rect width="9" height="7" fill="#41479B"/>
        <rect x="9" width="7" height="1" fill="#DC251C"/>
        <rect x="9" y="2" width="7" height="1" fill="#DC251C"/>
        <rect x="9" y="4" width="7" height="1" fill="#DC251C"/>
        <rect x="9" y="6" width="7" height="1" fill="#DC251C"/>
        <rect y="8" width="16" height="1" fill="#DC251C"/>
        <rect y="10" width="16" height="1" fill="#DC251C"/>
        <rect x="1" y="1" width="1" height="1" fill="#C5D0EC"/>
        <rect x="3" y="1" width="1" height="1" fill="#C5D0EC"/>
        <rect x="5" y="1" width="1" height="1" fill="#C5D0EC"/>
        <rect x="7" y="1" width="1" height="1" fill="#C5D0EC"/>
        <rect x="1" y="3" width="1" height="1" fill="#C5D0EC"/>
        <rect x="3" y="3" width="1" height="1" fill="#C5D0EC"/>
        <rect x="5" y="3" width="1" height="1" fill="#C5D0EC"/>
        <rect x="2" y="4" width="1" height="1" fill="#C5D0EC"/>
        <rect x="4" y="4" width="1" height="1" fill="#C5D0EC"/>
        <rect x="6" y="4" width="1" height="1" fill="#C5D0EC"/>
        <rect x="2" y="2" width="1" height="1" fill="#C5D0EC"/>
        <rect x="4" y="2" width="1" height="1" fill="#C5D0EC"/>
        <rect x="6" y="2" width="1" height="1" fill="#C5D0EC"/>
        <rect x="7" y="3" width="1" height="1" fill="#C5D0EC"/>
        <rect x="1" y="5" width="1" height="1" fill="#C5D0EC"/>
        <rect x="3" y="5" width="1" height="1" fill="#C5D0EC"/>
        <rect x="5" y="5" width="1" height="1" fill="#C5D0EC"/>
        <rect x="7" y="5" width="1" height="1" fill="#C5D0EC"/>
    </symbol>
    <symbol id="check" viewBox="0 0 32 32" fill="currentColor">
        <path d="M25.961 8.625l-12.629 12.629-5.957-5.961c-0.181-0.181-0.431-0.293-0.707-0.293s-0.526 0.112-0.707 0.293v0c-0.181 0.181-0.293 0.431-0.293 0.707s0.112 0.526 0.293 0.707l6.664 6.668c0.181 0.181 0.431 0.293 0.707 0.293s0.526-0.112 0.707-0.293l13.336-13.336c0.181-0.181 0.293-0.431 0.293-0.707s-0.112-0.526-0.293-0.707v0c-0.181-0.181-0.431-0.293-0.707-0.293s-0.526 0.112-0.707 0.293v0z"/>
    </symbol>

    <!-- Actions -->
    <symbol id="copy" viewBox="0 0 32 32" fill="currentColor">
        <path d="M13.332 9.668c-2.013 0-3.664 1.651-3.664 3.664v10.668c0 2.013 1.651 3.668 3.664 3.668h10.668c2.013 0 3.668-1.655 3.668-3.668v-10.668c0-2.013-1.655-3.664-3.668-3.664zM13.332 11.668h10.668c0.932 0 1.668 0.732 1.668 1.664v10.668c0 0.932-0.736 1.668-1.668 1.668h-10.668c-0.932 0-1.664-0.736-1.664-1.668v-10.668c0-0.932 0.732-1.664 1.664-1.664z"/>
        <path d="M8 4.332c-0.972 0-1.906 0.387-2.594 1.074s-1.074 1.622-1.074 2.594v10.668c0 0.972 0.387 1.902 1.074 2.59s1.622 1.074 2.594 1.074h2.668c0.552 0 1-0.448 1-1v0c0-0.552-0.448-1-1-1v0h-2.668c-0.443 0-0.867-0.175-1.18-0.488s-0.488-0.733-0.488-1.176v-10.668c0-0.442 0.175-0.867 0.488-1.18s0.737-0.488 1.18-0.488h10.668c0.442 0 0.863 0.176 1.176 0.488s0.488 0.737 0.488 1.18v2.668c0 0.552 0.448 1 1 1v0c0.552 0 1-0.448 1-1v0-2.668c0-0.972-0.387-1.906-1.074-2.594s-1.618-1.074-2.59-1.074z"/>
    </symbol>

    <!-- Code -->
    <symbol id="code-block" viewBox="0 0 32 32" fill="currentColor">
        <path d="M7.29249 12.7076L3.29249 8.70757C3.19952 8.6147 3.12576 8.50441 3.07543 8.38301C3.02511 8.26161 2.99921 8.13148 2.99921 8.00007C2.99921 7.86865 3.02511 7.73853 3.07543 7.61713C3.12576 7.49573 3.19952 7.38544 3.29249 7.29257L7.29249 3.29257C7.48013 3.10493 7.73463 2.99951 7.99999 2.99951C8.26536 2.99951 8.51985 3.10493 8.70749 3.29257C8.89513 3.48021 9.00055 3.7347 9.00055 4.00007C9.00055 4.26543 8.89513 4.51993 8.70749 4.70757L5.41374 8.00007L8.70749 11.2926C8.89513 11.4802 9.00055 11.7347 9.00055 12.0001C9.00055 12.2654 8.89513 12.5199 8.70749 12.7076C8.51985 12.8952 8.26536 13.0006 7.99999 13.0006C7.73463 13.0006 7.48013 12.8952 7.29249 12.7076ZM12.2925 12.7076C12.3854 12.8005 12.4957 12.8743 12.6171 12.9246C12.7385 12.975 12.8686 13.0009 13 13.0009C13.1314 13.0009 13.2615 12.975 13.3829 12.9246C13.5043 12.8743 13.6146 12.8005 13.7075 12.7076L17.7075 8.70757C17.8005 8.6147 17.8742 8.50441 17.9246 8.38301C17.9749 8.26161 18.0008 8.13148 18.0008 8.00007C18.0008 7.86865 17.9749 7.73853 17.9246 7.61713C17.8742 7.49573 17.8005 7.38544 17.7075 7.29257L13.7075 3.29257C13.5199 3.10493 13.2654 2.99951 13 2.99951C12.7346 2.99951 12.4801 3.10493 12.2925 3.29257C12.1049 3.48021 11.9994 3.7347 11.9994 4.00007C11.9994 4.26543 12.1049 4.51993 12.2925 4.70757L15.5862 8.00007L12.2925 11.2926C12.1995 11.3854 12.1258 11.4957 12.0754 11.6171C12.0251 11.7385 11.9992 11.8687 11.9992 12.0001C11.9992 12.1315 12.0251 12.2616 12.0754 12.383C12.1258 12.5044 12.1995 12.6147 12.2925 12.7076ZM25 5.00007H22C21.7348 5.00007 21.4804 5.10542 21.2929 5.29296C21.1053 5.4805 21 5.73485 21 6.00007C21 6.26528 21.1053 6.51964 21.2929 6.70717C21.4804 6.89471 21.7348 7.00007 22 7.00007H25V25.0001H6.99999V17.0001C6.99999 16.7349 6.89464 16.4805 6.7071 16.293C6.51956 16.1054 6.26521 16.0001 5.99999 16.0001C5.73478 16.0001 5.48042 16.1054 5.29289 16.293C5.10535 16.4805 4.99999 16.7349 4.99999 17.0001V25.0001C4.99999 25.5305 5.21071 26.0392 5.58578 26.4143C5.96085 26.7894 6.46956 27.0001 6.99999 27.0001H25C25.5304 27.0001 26.0391 26.7894 26.4142 26.4143C26.7893 26.0392 27 25.5305 27 25.0001V7.00007C27 6.46963 26.7893 5.96093 26.4142 5.58585C26.0391 5.21078 25.5304 5.00007 25 5.00007Z"/>
    </symbol>
    <symbol id="code" viewBox="0 0 32 32" fill="currentColor">
        <path d="M11.6637 8.75002L3.49999 16L11.6587 23.25C11.7572 23.3372 11.8376 23.4429 11.8952 23.5611C11.9529 23.6793 11.9867 23.8077 11.9947 23.939C12.0027 24.0703 11.9847 24.2019 11.9419 24.3262C11.8991 24.4506 11.8322 24.5653 11.745 24.6638C11.6578 24.7623 11.5521 24.8426 11.4339 24.9003C11.3157 24.9579 11.1873 24.9917 11.056 24.9997C10.9247 25.0077 10.7931 24.9898 10.6688 24.9469C10.5444 24.9041 10.4297 24.8372 10.3312 24.75L1.33124 16.75C1.22483 16.6562 1.13961 16.5408 1.08124 16.4115C1.02286 16.2821 0.992676 16.1419 0.992676 16C0.992676 15.8581 1.02286 15.7179 1.08124 15.5886C1.13961 15.4593 1.22483 15.3439 1.33124 15.25L10.3312 7.25002C10.4297 7.16252 10.5445 7.09529 10.669 7.05214C10.7934 7.009 10.9252 6.9908 11.0567 6.99858C11.1882 7.00635 11.3169 7.03996 11.4354 7.09747C11.554 7.15498 11.66 7.23527 11.7475 7.33377C11.835 7.43226 11.9022 7.54702 11.9454 7.67149C11.9885 7.79597 12.0067 7.92773 11.9989 8.05924C11.9911 8.19075 11.9575 8.31944 11.9 8.43796C11.8425 8.55649 11.7622 8.66252 11.6637 8.75002ZM30.6637 15.25L21.6637 7.25002C21.4648 7.07398 21.2041 6.98417 20.939 7.00034C20.6739 7.01652 20.426 7.13735 20.25 7.33627C20.074 7.53518 19.9841 7.79587 20.0003 8.061C20.0165 8.32613 20.1373 8.57398 20.3362 8.75002L28.5 16L20.3412 23.25C20.2427 23.3372 20.1624 23.4429 20.1048 23.5611C20.0471 23.6793 20.0133 23.8077 20.0053 23.939C19.9973 24.0703 20.0152 24.2019 20.0581 24.3262C20.1009 24.4506 20.1678 24.5653 20.255 24.6638C20.3422 24.7623 20.4479 24.8426 20.5661 24.9003C20.6843 24.9579 20.8127 24.9917 20.944 24.9997C21.0753 25.0077 21.2069 24.9898 21.3312 24.9469C21.4556 24.9041 21.5702 24.8372 21.6687 24.75L30.6687 16.75C30.7751 16.6562 30.8604 16.5408 30.9187 16.4115C30.9771 16.2821 31.0073 16.1419 31.0073 16C31.0073 15.8581 30.9771 15.7179 30.9187 15.5886C30.8604 15.4593 30.7751 15.3439 30.6687 15.25H30.6637Z"/>
    </symbol>


</svg>